<svg viewBox="0 0 800 600" xmlns="http://www.w3.org/2000/svg">
  <defs>
    <linearGradient id="collabBg" x1="0%" y1="0%" x2="100%" y2="100%">
      <stop offset="0%" style="stop-color:#6366f1;stop-opacity:1" />
      <stop offset="50%" style="stop-color:#8b5cf6;stop-opacity:1" />
      <stop offset="100%" style="stop-color:#ec4899;stop-opacity:1" />
    </linearGradient>
    
    <radialGradient id="connectionGlow" cx="50%" cy="50%" r="50%">
      <stop offset="0%" style="stop-color:rgba(255,255,255,0.2);stop-opacity:1" />
      <stop offset="100%" style="stop-color:rgba(255,255,255,0);stop-opacity:0" />
    </radialGradient>
  </defs>
  
  <!-- Background -->
  <rect width="800" height="600" fill="url(#collabBg)"/>
  
  <!-- Floating Particles -->
  <g opacity="0.4">
    <circle cx="100" cy="100" r="6" fill="rgba(255,255,255,0.3)">
      <animate attributeName="cy" values="100;80;100" dur="4s" repeatCount="indefinite"/>
    </circle>
    <circle cx="700" cy="150" r="4" fill="rgba(255,255,255,0.2)">
      <animate attributeName="cy" values="150;130;150" dur="3s" repeatCount="indefinite"/>
    </circle>
    <circle cx="650" cy="450" r="5" fill="rgba(255,255,255,0.25)">
      <animate attributeName="cy" values="450;430;450" dur="5s" repeatCount="indefinite"/>
    </circle>
  </g>
  
  <!-- Central Collaboration Hub -->
  <g transform="translate(300, 200)">
    <!-- Main Hub Circle -->
    <circle cx="100" cy="100" r="60" fill="url(#connectionGlow)" stroke="rgba(255,255,255,0.4)" stroke-width="2"/>
    <circle cx="100" cy="100" r="40" fill="rgba(255,255,255,0.1)" stroke="rgba(255,255,255,0.3)" stroke-width="1"/>
    
    <!-- Hub Icon -->
    <circle cx="100" cy="100" r="15" fill="rgba(255,255,255,0.9)"/>
    <path d="M 95 95 L 105 95 L 105 105 L 95 105 Z" fill="#6366f1"/>
    <circle cx="92" cy="92" r="2" fill="#8b5cf6"/>
    <circle cx="108" cy="92" r="2" fill="#8b5cf6"/>
    <circle cx="92" cy="108" r="2" fill="#8b5cf6"/>
    <circle cx="108" cy="108" r="2" fill="#8b5cf6"/>
    
    <!-- Connection Lines -->
    <g stroke="rgba(255,255,255,0.4)" stroke-width="2" fill="none">
      <!-- To Student 1 -->
      <line x1="60" y1="60" x2="100" y2="100">
        <animate attributeName="opacity" values="0.2;0.8;0.2" dur="3s" repeatCount="indefinite"/>
      </line>
      <!-- To Student 2 -->
      <line x1="140" y1="60" x2="100" y2="100">
        <animate attributeName="opacity" values="0.2;0.8;0.2" dur="3.5s" repeatCount="indefinite"/>
      </line>
      <!-- To Student 3 -->
      <line x1="60" y1="140" x2="100" y2="100">
        <animate attributeName="opacity" values="0.2;0.8;0.2" dur="4s" repeatCount="indefinite"/>
      </line>
      <!-- To Student 4 -->
      <line x1="140" y1="140" x2="100" y2="100">
        <animate attributeName="opacity" values="0.2;0.8;0.2" dur="2.5s" repeatCount="indefinite"/>
      </line>
    </g>
  </g>
  
  <!-- Student Avatars -->
  <!-- Student 1 - Top Left -->
  <g transform="translate(320, 220)">
    <circle cx="20" cy="20" r="18" fill="#fbbf24" stroke="rgba(255,255,255,0.3)" stroke-width="2"/>
    <circle cx="20" cy="18" r="12" fill="#d97706"/>
    <path d="M 8 15 Q 20 5 32 15 Q 32 10 20 8 Q 8 10 8 15" fill="#374151"/>
    <circle cx="16" cy="16" r="1.5" fill="#1f2937"/>
    <circle cx="24" cy="16" r="1.5" fill="#1f2937"/>
    <path d="M 14 22 Q 20 26 26 22" stroke="#1f2937" stroke-width="1" fill="none"/>
    
    <!-- Laptop -->
    <rect x="5" y="38" width="30" height="18" rx="2" fill="#374151"/>
    <rect x="7" y="40" width="26" height="14" rx="1" fill="#1f2937"/>
    <rect x="9" y="42" width="22" height="2" rx="1" fill="#6366f1"/>
    
    <!-- Status Indicator -->
    <circle cx="35" cy="10" r="4" fill="#10b981">
      <animate attributeName="opacity" values="0.5;1;0.5" dur="2s" repeatCount="indefinite"/>
    </circle>
  </g>
  
  <!-- Student 2 - Top Right -->
  <g transform="translate(460, 220)">
    <circle cx="20" cy="20" r="18" fill="#f472b6" stroke="rgba(255,255,255,0.3)" stroke-width="2"/>
    <circle cx="20" cy="18" r="12" fill="#be185d"/>
    <path d="M 10 16 Q 20 8 30 16 Q 28 12 20 10 Q 12 12 10 16" fill="#7c2d12"/>
    <circle cx="16" cy="16" r="1.5" fill="#1f2937"/>
    <circle cx="24" cy="16" r="1.5" fill="#1f2937"/>
    <path d="M 14 22 Q 20 26 26 22" stroke="#1f2937" stroke-width="1" fill="none"/>
    
    <!-- Tablet -->
    <rect x="12" y="38" width="16" height="22" rx="2" fill="#374151"/>
    <rect x="13" y="40" width="14" height="18" rx="1" fill="#1f2937"/>
    <rect x="15" y="42" width="10" height="2" rx="1" fill="#8b5cf6"/>
    
    <!-- Status Indicator -->
    <circle cx="35" cy="10" r="4" fill="#f59e0b">
      <animate attributeName="opacity" values="0.5;1;0.5" dur="2.2s" repeatCount="indefinite"/>
    </circle>
  </g>
  
  <!-- Student 3 - Bottom Left -->
  <g transform="translate(320, 360)">
    <circle cx="20" cy="20" r="18" fill="#34d399" stroke="rgba(255,255,255,0.3)" stroke-width="2"/>
    <circle cx="20" cy="18" r="12" fill="#059669"/>
    <path d="M 9 14 Q 20 6 31 14 Q 30 11 20 9 Q 10 11 9 14" fill="#dc2626"/>
    <circle cx="16" cy="16" r="1.5" fill="#1f2937"/>
    <circle cx="24" cy="16" r="1.5" fill="#1f2937"/>
    <path d="M 14 22 Q 20 26 26 22" stroke="#1f2937" stroke-width="1" fill="none"/>
    
    <!-- Phone -->
    <rect x="15" y="38" width="10" height="18" rx="2" fill="#374151"/>
    <rect x="16" y="40" width="8" height="14" rx="1" fill="#1f2937"/>
    <rect x="17" y="42" width="6" height="1" rx="0.5" fill="#10b981"/>
    
    <!-- Status Indicator -->
    <circle cx="35" cy="10" r="4" fill="#3b82f6">
      <animate attributeName="opacity" values="0.5;1;0.5" dur="1.8s" repeatCount="indefinite"/>
    </circle>
  </g>
  
  <!-- Student 4 - Bottom Right -->
  <g transform="translate(460, 360)">
    <circle cx="20" cy="20" r="18" fill="#a78bfa" stroke="rgba(255,255,255,0.3)" stroke-width="2"/>
    <circle cx="20" cy="18" r="12" fill="#7c3aed"/>
    <path d="M 11 17 Q 20 9 29 17 Q 27 13 20 11 Q 13 13 11 17" fill="#1f2937"/>
    <circle cx="16" cy="16" r="1.5" fill="#1f2937"/>
    <circle cx="24" cy="16" r="1.5" fill="#1f2937"/>
    <path d="M 14 22 Q 20 26 26 22" stroke="#1f2937" stroke-width="1" fill="none"/>
    
    <!-- Desktop -->
    <rect x="8" y="38" width="24" height="15" rx="2" fill="#374151"/>
    <rect x="10" y="40" width="20" height="11" rx="1" fill="#1f2937"/>
    <rect x="12" y="42" width="16" height="2" rx="1" fill="#a78bfa"/>
    <rect x="18" y="53" width="4" height="3" fill="#6b7280"/>
    
    <!-- Status Indicator -->
    <circle cx="35" cy="10" r="4" fill="#ef4444">
      <animate attributeName="opacity" values="0.5;1;0.5" dur="2.8s" repeatCount="indefinite"/>
    </circle>
  </g>
  
  <!-- Shared Whiteboard -->
  <g transform="translate(100, 100)">
    <rect x="0" y="0" width="120" height="80" rx="8" fill="rgba(255,255,255,0.95)" stroke="rgba(255,255,255,0.3)" stroke-width="2"/>
    
    <!-- Whiteboard Header -->
    <rect x="0" y="0" width="120" height="20" rx="8" fill="rgba(99,102,241,0.2)"/>
    <text x="60" y="14" text-anchor="middle" fill="#374151" font-family="Arial, sans-serif" font-size="10" font-weight="bold">
      Collaborative Workspace
    </text>
    
    <!-- Shared Content -->
    <g transform="translate(10, 30)">
      <!-- Diagram -->
      <circle cx="20" cy="15" r="8" fill="rgba(99,102,241,0.3)" stroke="#6366f1" stroke-width="1"/>
      <text x="20" y="18" text-anchor="middle" fill="#374151" font-family="Arial, sans-serif" font-size="8">A</text>
      
      <circle cx="50" cy="15" r="8" fill="rgba(139,92,246,0.3)" stroke="#8b5cf6" stroke-width="1"/>
      <text x="50" y="18" text-anchor="middle" fill="#374151" font-family="Arial, sans-serif" font-size="8">B</text>
      
      <circle cx="80" cy="15" r="8" fill="rgba(236,72,153,0.3)" stroke="#ec4899" stroke-width="1"/>
      <text x="80" y="18" text-anchor="middle" fill="#374151" font-family="Arial, sans-serif" font-size="8">C</text>
      
      <!-- Connections -->
      <line x1="28" y1="15" x2="42" y2="15" stroke="#6b7280" stroke-width="1"/>
      <line x1="58" y1="15" x2="72" y2="15" stroke="#6b7280" stroke-width="1"/>
      
      <!-- Notes -->
      <rect x="10" y="30" width="80" height="3" rx="1" fill="rgba(16,185,129,0.2)"/>
      <rect x="10" y="36" width="60" height="3" rx="1" fill="rgba(245,158,11,0.2)"/>
      <rect x="10" y="42" width="70" height="3" rx="1" fill="rgba(239,68,68,0.2)"/>
    </g>
  </g>
  
  <!-- Chat Messages -->
  <g transform="translate(550, 150)">
    <!-- Chat Container -->
    <rect x="0" y="0" width="180" height="200" rx="12" fill="rgba(255,255,255,0.1)" stroke="rgba(255,255,255,0.2)" stroke-width="1"/>
    
    <!-- Chat Header -->
    <text x="90" y="25" text-anchor="middle" fill="white" font-family="Arial, sans-serif" font-size="14" font-weight="bold">
      💬 Team Chat
    </text>
    
    <!-- Messages -->
    <g transform="translate(15, 40)">
      <!-- Message 1 -->
      <rect x="0" y="0" width="120" height="25" rx="12" fill="rgba(99,102,241,0.2)"/>
      <circle cx="12" cy="12" r="6" fill="#fbbf24"/>
      <text x="25" y="10" fill="rgba(255,255,255,0.8)" font-family="Arial, sans-serif" font-size="8" font-weight="bold">Alex</text>
      <text x="25" y="18" fill="rgba(255,255,255,0.7)" font-family="Arial, sans-serif" font-size="7">Great idea for the project!</text>
      
      <!-- Message 2 -->
      <rect x="30" y="35" width="120" height="25" rx="12" fill="rgba(139,92,246,0.2)"/>
      <circle cx="42" cy="47" r="6" fill="#f472b6"/>
      <text x="55" y="45" fill="rgba(255,255,255,0.8)" font-family="Arial, sans-serif" font-size="8" font-weight="bold">Sarah</text>
      <text x="55" y="53" fill="rgba(255,255,255,0.7)" font-family="Arial, sans-serif" font-size="7">Let's implement it together</text>
      
      <!-- Message 3 -->
      <rect x="0" y="70" width="130" height="25" rx="12" fill="rgba(16,185,129,0.2)"/>
      <circle cx="12" cy="82" r="6" fill="#34d399"/>
      <text x="25" y="80" fill="rgba(255,255,255,0.8)" font-family="Arial, sans-serif" font-size="8" font-weight="bold">Mike</text>
      <text x="25" y="88" fill="rgba(255,255,255,0.7)" font-family="Arial, sans-serif" font-size="7">I'll start on the backend API</text>
      
      <!-- Typing Indicator -->
      <rect x="15" y="105" width="80" height="20" rx="10" fill="rgba(255,255,255,0.1)"/>
      <text x="25" y="117" fill="rgba(255,255,255,0.6)" font-family="Arial, sans-serif" font-size="7">Emma is typing...</text>
      <circle cx="100" cy="115" r="2" fill="rgba(255,255,255,0.4)">
        <animate attributeName="opacity" values="0.2;0.8;0.2" dur="1s" repeatCount="indefinite"/>
      </circle>
    </g>
  </g>
  
  <!-- Progress Tracking -->
  <g transform="translate(50, 400)">
    <rect x="0" y="0" width="200" height="120" rx="10" fill="rgba(255,255,255,0.1)" stroke="rgba(255,255,255,0.2)" stroke-width="1"/>
    
    <text x="100" y="25" text-anchor="middle" fill="white" font-family="Arial, sans-serif" font-size="14" font-weight="bold">
      📊 Team Progress
    </text>
    
    <!-- Progress Bars -->
    <g transform="translate(20, 40)">
      <!-- Alex -->
      <text x="0" y="12" fill="rgba(255,255,255,0.8)" font-family="Arial, sans-serif" font-size="10">Alex</text>
      <rect x="40" y="5" width="120" height="8" rx="4" fill="rgba(255,255,255,0.2)"/>
      <rect x="40" y="5" width="84" height="8" rx="4" fill="#fbbf24">
        <animate attributeName="width" values="60;84;60" dur="4s" repeatCount="indefinite"/>
      </rect>
      <text x="165" y="12" fill="rgba(255,255,255,0.7)" font-family="Arial, sans-serif" font-size="8">70%</text>
      
      <!-- Sarah -->
      <text x="0" y="32" fill="rgba(255,255,255,0.8)" font-family="Arial, sans-serif" font-size="10">Sarah</text>
      <rect x="40" y="25" width="120" height="8" rx="4" fill="rgba(255,255,255,0.2)"/>
      <rect x="40" y="25" width="96" height="8" rx="4" fill="#f472b6">
        <animate attributeName="width" values="72;96;72" dur="3.5s" repeatCount="indefinite"/>
      </rect>
      <text x="165" y="32" fill="rgba(255,255,255,0.7)" font-family="Arial, sans-serif" font-size="8">80%</text>
      
      <!-- Mike -->
      <text x="0" y="52" fill="rgba(255,255,255,0.8)" font-family="Arial, sans-serif" font-size="10">Mike</text>
      <rect x="40" y="45" width="120" height="8" rx="4" fill="rgba(255,255,255,0.2)"/>
      <rect x="40" y="45" width="72" height="8" rx="4" fill="#34d399">
        <animate attributeName="width" values="48;72;48" dur="4.5s" repeatCount="indefinite"/>
      </rect>
      <text x="165" y="52" fill="rgba(255,255,255,0.7)" font-family="Arial, sans-serif" font-size="8">60%</text>
      
      <!-- Emma -->
      <text x="0" y="72" fill="rgba(255,255,255,0.8)" font-family="Arial, sans-serif" font-size="10">Emma</text>
      <rect x="40" y="65" width="120" height="8" rx="4" fill="rgba(255,255,255,0.2)"/>
      <rect x="40" y="65" width="108" height="8" rx="4" fill="#a78bfa">
        <animate attributeName="width" values="84;108;84" dur="3s" repeatCount="indefinite"/>
      </rect>
      <text x="165" y="72" fill="rgba(255,255,255,0.7)" font-family="Arial, sans-serif" font-size="8">90%</text>
    </g>
  </g>
  
  <!-- Floating Achievement Badges -->
  <g transform="translate(650, 300)" opacity="0.8">
    <circle cx="20" cy="20" r="15" fill="rgba(251,191,36,0.3)" stroke="#fbbf24" stroke-width="2"/>
    <text x="20" y="25" text-anchor="middle" fill="#fbbf24" font-family="Arial, sans-serif" font-size="12" font-weight="bold">🏆</text>
    <animateTransform attributeName="transform" type="translate" values="650,300; 650,280; 650,300" dur="4s" repeatCount="indefinite"/>
  </g>
  
  <!-- Text Elements -->
  <text x="400" y="550" text-anchor="middle" fill="white" font-family="Arial, sans-serif" font-size="24" font-weight="bold" opacity="0.95">
    Collaborative Learning Experience
  </text>
  <text x="400" y="580" text-anchor="middle" fill="rgba(255,255,255,0.8)" font-family="Arial, sans-serif" font-size="16">
    Connect • Collaborate • Learn Together • Track Progress
  </text>
</svg>